<svg fill="none" height="146" width="247" xmlns="http://www.w3.org/2000/svg"><g fill="#fff"><path d="m31.59 133.676.01.029.01.028c.918 2.639 2.391 4.852 4.563 6.345 2.012 1.383 4.27 2.099 6.7 2.099 2.602 0 4.968-.861 7.001-2.501 2.053-1.58 3.523-3.596 4.29-6.025l20.143-63.807 20.143 63.807c.755 2.389 2.15 4.402 4.112 5.997l.035.028.035.027c2.103 1.608 4.497 2.474 7.109 2.474 2.43 0 4.688-.716 6.7-2.099 2.172-1.493 3.645-3.706 4.563-6.345l.01-.028.009-.029 28.005-86.014.022-.069.02-.07c.287-1.055.508-2.111.532-3.05.234-2.588-.563-4.956-2.491-6.76-1.846-1.825-4.19-2.695-6.794-2.695-2.207 0-4.225.71-5.921 2.124-1.619 1.35-2.737 3.092-3.372 5.125l-.003.01-.003.011-21.148 69.485-21.26-69.191c-.67-2.261-2.024-4.096-3.97-5.423-1.847-1.42-3.993-2.141-6.333-2.141-2.369 0-4.553.737-6.474 2.141-1.883 1.35-3.169 3.196-3.828 5.423l-21.26 69.191-21.128-69.418c-.534-2.07-1.617-3.847-3.256-5.213-1.731-1.443-3.81-2.124-6.064-2.124-2.556 0-4.837.9-6.652 2.694-1.899 1.777-2.752 4.102-2.634 6.677.012.96.237 2.048.534 3.134l.019.07.022.07 28.005 86.013z" stroke="#fff" stroke-width="6"/><path d="m214.64 43.5-.009-.028-.01-.028c-.918-2.64-2.392-4.851-4.563-6.344-2.013-1.384-4.27-2.1-6.701-2.1-2.602 0-4.967.861-7.001 2.501-2.053 1.58-3.523 3.597-4.289 6.025h-.001l-20.142 63.807-20.143-63.806c-.755-2.39-2.15-4.403-4.113-5.998l-.034-.028-.035-.027c-2.104-1.608-4.498-2.474-7.109-2.474-2.431 0-4.688.716-6.701 2.1-2.171 1.493-3.645 3.705-4.563 6.344l-.009.028-.01.029-28.004 86.014-.023.069-.019.07c-.288 1.055-.508 2.112-.532 3.05-.235 2.588.562 4.957 2.49 6.761 1.847 1.825 4.191 2.694 6.794 2.694 2.208 0 4.225-.71 5.922-2.124 1.619-1.349 2.736-3.092 3.371-5.125l.004-.01.003-.011 21.148-69.485 21.26 69.191c.67 2.261 2.023 4.096 3.969 5.423 1.848 1.421 3.994 2.141 6.334 2.141 2.368 0 4.552-.737 6.474-2.141 1.883-1.35 3.169-3.195 3.828-5.423l21.26-69.19 21.128 69.417c.533 2.071 1.616 3.847 3.256 5.213 1.731 1.443 3.809 2.124 6.064 2.124 2.556 0 4.836-.9 6.651-2.694 1.899-1.777 2.752-4.102 2.635-6.677-.013-.959-.238-2.048-.534-3.134l-.019-.07-.023-.069-28.004-86.014z" stroke="#fff" stroke-width="6"/><path d="m212.25 21.605c-1.063 0-2.03-.116-2.9-.348a10.755 10.755 0 0 1 -2.378-.957 1.11 1.11 0 0 1 -.493-.957c0-.29.107-.551.319-.783.213-.251.484-.377.812-.377.174 0 .348.039.522.116.522.232 1.093.435 1.711.609.638.174 1.383.261 2.233.261 1.122 0 1.934-.174 2.436-.522.522-.367.783-.88.783-1.537 0-.425-.212-.754-.638-.986-.406-.232-.947-.425-1.624-.58a81.567 81.567 0 0 0 -2.088-.522 13.134 13.134 0 0 1 -2.117-.754 4.718 4.718 0 0 1 -1.624-1.305c-.406-.56-.609-1.276-.609-2.146 0-1.315.474-2.407 1.421-3.277.948-.87 2.359-1.305 4.234-1.305.793 0 1.537.068 2.233.203.716.135 1.373.31 1.972.522a.99.99 0 0 1 .609.464c.155.213.232.425.232.638 0 .31-.116.58-.348.812a1.052 1.052 0 0 1 -.812.348h-.203l-.174-.058c-.464-.155-.976-.28-1.537-.377a10.077 10.077 0 0 0 -1.769-.145c-1.063 0-1.885.193-2.465.58s-.87.87-.87 1.45c0 .503.203.89.609 1.16.426.27.967.493 1.624.667.677.155 1.383.319 2.117.493.754.174 1.46.425 2.117.754.677.31 1.218.744 1.624 1.305.426.56.638 1.315.638 2.262 0 1.18-.473 2.194-1.421 3.045-.928.831-2.32 1.247-4.176 1.247zm-14.081-.145a1.26 1.26 0 0 1 -.928-.377 1.259 1.259 0 0 1 -.377-.928v-12.441c0-.367.125-.677.377-.928.251-.27.56-.406.928-.406.367 0 .676.135.928.406.27.251.406.56.406.928v1.247a9.325 9.325 0 0 1 1.914-1.885c.754-.56 1.633-.841 2.639-.841h.145c.367 0 .667.126.899.377.251.251.377.56.377.928 0 .367-.126.667-.377.899-.252.232-.571.348-.957.348h-.145c-.948 0-1.808.242-2.581.725a5.944 5.944 0 0 0 -1.914 1.827v8.816c0 .367-.136.677-.406.928a1.263 1.263 0 0 1 -.928.377zm-10.619.145c-2.359 0-4.205-.667-5.539-2.001-1.315-1.353-1.972-3.248-1.972-5.684a9.56 9.56 0 0 1 .725-3.712 6.484 6.484 0 0 1 2.262-2.871c1.025-.735 2.339-1.102 3.944-1.102 1.489 0 2.745.348 3.77 1.044a6.45 6.45 0 0 1 2.32 2.668c.541 1.102.812 2.3.812 3.596 0 .367-.126.677-.377.928-.232.251-.551.377-.957.377h-9.831c.155 1.295.648 2.34 1.479 3.132.831.773 2.03 1.16 3.596 1.16.87 0 1.605-.077 2.204-.232.599-.174 1.17-.396 1.711-.667.155-.077.329-.116.522-.116.309 0 .58.106.812.319s.348.483.348.812a.996.996 0 0 1 -.232.638 1.645 1.645 0 0 1 -.522.435 11.39 11.39 0 0 1 -2.088.928c-.735.232-1.73.348-2.987.348zm-4.843-8.903h8.555c-.058-1.005-.319-1.817-.783-2.436-.445-.619-.986-1.073-1.624-1.363s-1.266-.435-1.885-.435-1.247.145-1.885.435-1.179.744-1.624 1.363-.696 1.43-.754 2.436zm-7.04 8.903c-.348 0-.764-.039-1.247-.116a4.297 4.297 0 0 1 -1.392-.435c-.445-.251-.822-.638-1.131-1.16s-.464-1.228-.464-2.117v-8.99h-2.059c-.367 0-.551-.184-.551-.551 0-.193.087-.358.261-.493l3.944-3.857c.039-.039.097-.087.174-.145a.5.5 0 0 1 .696.058.556.556 0 0 1 .174.406v2.32h3.277a1.1 1.1 0 0 1 .812.319c.213.213.319.483.319.812 0 .31-.106.58-.319.812a1.1 1.1 0 0 1 -.812.319h-3.277v8.758c0 .56.106.967.319 1.218s.464.406.754.464c.309.039.58.058.812.058.464 0 .802-.039 1.015-.116.232-.097.474-.145.725-.145.271 0 .512.097.725.29a.97.97 0 0 1 .319.754c0 .445-.222.783-.667 1.015-.348.155-.725.28-1.131.377a5.259 5.259 0 0 1 -1.276.145zm-10.573 0c-.348 0-.764-.039-1.247-.116a4.297 4.297 0 0 1 -1.392-.435c-.445-.251-.822-.638-1.131-1.16-.31-.522-.464-1.228-.464-2.117v-8.99h-2.059c-.368 0-.551-.184-.551-.551 0-.193.087-.358.261-.493l3.944-3.857a1.56 1.56 0 0 1 .174-.145.498.498 0 0 1 .696.058.556.556 0 0 1 .174.406v2.32h3.277c.328 0 .599.106.812.319.212.213.319.483.319.812 0 .31-.107.58-.319.812a1.102 1.102 0 0 1 -.812.319h-3.277v8.758c0 .56.106.967.319 1.218.212.251.464.406.754.464.309.039.58.058.812.058.464 0 .802-.039 1.015-.116.232-.097.473-.145.725-.145.27 0 .512.097.725.29a.974.974 0 0 1 .319.754c0 .445-.223.783-.667 1.015-.348.155-.725.28-1.131.377a5.259 5.259 0 0 1 -1.276.145zm-16.779 0a5.42 5.42 0 0 1 -2.349-.522 4.466 4.466 0 0 1 -1.74-1.479c-.425-.657-.638-1.44-.638-2.349 0-1.373.542-2.494 1.624-3.364 1.102-.89 2.784-1.334 5.046-1.334h3.509v-.232c0-1.295-.319-2.214-.957-2.755-.638-.56-1.614-.841-2.929-.841-.812 0-1.527.077-2.146.232-.599.135-1.169.29-1.711.464-.154.039-.28.058-.377.058-.29 0-.541-.106-.754-.319a1.067 1.067 0 0 1 -.319-.783c0-.522.252-.89.754-1.102a13.76 13.76 0 0 1 2.233-.725c.832-.213 1.76-.319 2.784-.319 1.412 0 2.562.28 3.451.841.89.56 1.547 1.276 1.972 2.146.426.87.638 1.779.638 2.726v8.207c0 .367-.135.677-.406.928a1.26 1.26 0 0 1 -.928.377c-.367 0-.676-.126-.928-.377a1.263 1.263 0 0 1 -.377-.928v-.754c-.522.541-1.218 1.044-2.088 1.508s-1.991.696-3.364.696zm.986-2.32a5.13 5.13 0 0 0 2.552-.667c.793-.445 1.431-.947 1.914-1.508v-2.436h-3.161c-1.353 0-2.426.174-3.219.522-.773.348-1.16.938-1.16 1.769 0 .619.213 1.16.638 1.624.445.464 1.257.696 2.436.696zm-29.572 2.175c-.367 0-.676-.126-.928-.377a1.263 1.263 0 0 1 -.377-.928v-12.441c0-.367.126-.677.377-.928.252-.27.561-.406.928-.406.368 0 .677.135.928.406.271.251.406.56.406.928v1.189a9.034 9.034 0 0 1 1.015-1.189c.426-.406.957-.754 1.595-1.044s1.412-.435 2.32-.435c1.16 0 2.108.31 2.842.928.754.619 1.286 1.305 1.595 2.059.232-.367.561-.783.986-1.247.426-.464.986-.87 1.682-1.218.716-.348 1.605-.522 2.668-.522 1.141 0 2.069.29 2.784.87a4.862 4.862 0 0 1 1.566 2.117c.329.85.493 1.711.493 2.581v8.352c0 .367-.135.677-.406.928a1.26 1.26 0 0 1 -.928.377c-.367 0-.676-.126-.928-.377a1.263 1.263 0 0 1 -.377-.928v-7.83c0-1.218-.222-2.127-.667-2.726-.425-.619-1.189-.928-2.291-.928-.734 0-1.363.145-1.885.435-.522.27-.966.619-1.334 1.044-.367.425-.686.86-.957 1.305v8.7c0 .367-.135.677-.406.928a1.26 1.26 0 0 1 -.928.377c-.367 0-.676-.126-.928-.377a1.263 1.263 0 0 1 -.377-.928v-7.83c0-1.218-.222-2.127-.667-2.726-.425-.619-1.189-.928-2.291-.928-.734 0-1.363.145-1.885.435-.522.27-.966.619-1.334 1.044-.367.425-.686.86-.957 1.305v8.7c0 .367-.135.677-.406.928a1.26 1.26 0 0 1 -.928.377zm-17.634 0a1.26 1.26 0 0 1 -.928-.377 1.259 1.259 0 0 1 -.377-.928v-12.441c0-.367.125-.677.377-.928.251-.27.56-.406.928-.406.367 0 .676.135.928.406.27.251.406.56.406.928v1.247a9.325 9.325 0 0 1 1.914-1.885c.754-.56 1.633-.841 2.639-.841h.145c.367 0 .667.126.899.377.251.251.377.56.377.928 0 .367-.126.667-.377.899-.252.232-.571.348-.957.348h-.145c-.948 0-1.808.242-2.581.725a5.944 5.944 0 0 0 -1.914 1.827v8.816c0 .367-.136.677-.406.928a1.263 1.263 0 0 1 -.928.377zm-10.619.145c-2.359 0-4.205-.667-5.54-2.001-1.314-1.353-1.971-3.248-1.971-5.684 0-1.315.241-2.552.725-3.712a6.49 6.49 0 0 1 2.262-2.871c1.024-.735 2.34-1.102 3.944-1.102 1.488 0 2.745.348 3.77 1.044a6.452 6.452 0 0 1 2.32 2.668c.541 1.102.812 2.3.812 3.596 0 .367-.126.677-.377.928-.232.251-.551.377-.957.377h-9.831c.154 1.295.647 2.34 1.479 3.132.831.773 2.03 1.16 3.596 1.16.87 0 1.604-.077 2.204-.232.6-.174 1.17-.396 1.71-.667.155-.077.33-.116.523-.116.31 0 .58.106.812.319s.348.483.348.812a.998.998 0 0 1 -.232.638c-.136.174-.31.319-.522.435a11.39 11.39 0 0 1 -2.088.928c-.735.232-1.73.348-2.987.348zm-4.843-8.903h8.555c-.058-1.005-.32-1.817-.783-2.436-.445-.619-.986-1.073-1.624-1.363s-1.267-.435-1.885-.435c-.619 0-1.247.145-1.885.435s-1.18.744-1.624 1.363c-.445.619-.696 1.43-.754 2.436zm-17.636 8.758c-.367 0-.677-.126-.928-.377a1.261 1.261 0 0 1 -.377-.928v-18.821c0-.387.126-.706.377-.957s.56-.377.928-.377c.367 0 .677.126.928.377.27.251.406.57.406.957v7.569a11.23 11.23 0 0 1 2.175-1.827c.85-.56 1.924-.841 3.219-.841 1.102 0 2.04.261 2.813.783a4.839 4.839 0 0 1 1.769 2.059c.406.85.609 1.798.609 2.842v8.236c0 .367-.135.677-.406.928-.251.251-.56.377-.928.377-.367 0-.677-.126-.928-.377a1.261 1.261 0 0 1 -.377-.928v-7.946c0-1.102-.251-1.962-.754-2.581-.483-.638-1.295-.957-2.436-.957-1.044 0-1.953.28-2.726.841-.773.56-1.45 1.208-2.03 1.943v8.7c0 .367-.135.677-.406.928-.251.251-.56.377-.928.377zm-6.774.145c-.348 0-.764-.039-1.247-.116a4.297 4.297 0 0 1 -1.392-.435c-.445-.251-.822-.638-1.131-1.16-.31-.522-.464-1.228-.464-2.117v-8.99h-2.06c-.367 0-.55-.184-.55-.551 0-.193.087-.358.26-.493l3.945-3.857a1.68 1.68 0 0 1 .174-.145.499.499 0 0 1 .696.058.556.556 0 0 1 .174.406v2.32h3.277c.328 0 .599.106.812.319a1.1 1.1 0 0 1 .319.812c0 .31-.107.58-.32.812a1.1 1.1 0 0 1 -.811.319h-3.277v8.758c0 .56.106.967.319 1.218.212.251.464.406.754.464.309.039.58.058.812.058.464 0 .802-.039 1.015-.116.232-.097.473-.145.725-.145.27 0 .512.097.725.29a.972.972 0 0 1 .319.754c0 .445-.223.783-.667 1.015-.348.155-.725.28-1.131.377a5.257 5.257 0 0 1 -1.276.145zm-16.779 0a5.419 5.419 0 0 1 -2.349-.522 4.462 4.462 0 0 1 -1.74-1.479c-.425-.657-.638-1.44-.638-2.349 0-1.373.542-2.494 1.624-3.364 1.102-.89 2.784-1.334 5.046-1.334h3.51v-.232c0-1.295-.32-2.214-.958-2.755-.638-.56-1.614-.841-2.929-.841-.812 0-1.527.077-2.146.232-.599.135-1.17.29-1.71.464a1.63 1.63 0 0 1 -.378.058c-.29 0-.541-.106-.754-.319a1.064 1.064 0 0 1 -.319-.783c0-.522.252-.89.754-1.102a13.75 13.75 0 0 1 2.233-.725c.832-.213 1.76-.319 2.784-.319 1.412 0 2.562.28 3.451.841.89.56 1.547 1.276 1.972 2.146.426.87.638 1.779.638 2.726v8.207c0 .367-.135.677-.406.928-.251.251-.56.377-.928.377-.367 0-.676-.126-.928-.377a1.261 1.261 0 0 1 -.377-.928v-.754c-.522.541-1.218 1.044-2.088 1.508s-1.991.696-3.364.696zm.986-2.32c.909 0 1.76-.222 2.552-.667.793-.445 1.431-.947 1.914-1.508v-2.436h-3.16c-1.354 0-2.427.174-3.22.522-.773.348-1.16.938-1.16 1.769 0 .619.213 1.16.638 1.624.445.464 1.257.696 2.436.696zm-14.07 2.32c-2.358 0-4.204-.667-5.538-2.001-1.315-1.353-1.973-3.248-1.973-5.684 0-1.315.242-2.552.726-3.712a6.49 6.49 0 0 1 2.262-2.871c1.024-.735 2.339-1.102 3.944-1.102 1.488 0 2.745.348 3.77 1.044a6.453 6.453 0 0 1 2.32 2.668c.54 1.102.812 2.3.812 3.596 0 .367-.126.677-.377.928-.232.251-.551.377-.957.377h-9.831c.154 1.295.647 2.34 1.479 3.132.83.773 2.03 1.16 3.596 1.16.87 0 1.604-.077 2.203-.232.6-.174 1.17-.396 1.712-.667.154-.077.328-.116.522-.116.309 0 .58.106.812.319s.348.483.348.812a.998.998 0 0 1 -.232.638c-.136.174-.31.319-.523.435a11.39 11.39 0 0 1 -2.088.928c-.734.232-1.73.348-2.986.348zm-4.843-8.903h8.555c-.058-1.005-.319-1.817-.783-2.436-.444-.619-.986-1.073-1.623-1.363-.638-.29-1.267-.435-1.885-.435-.62 0-1.247.145-1.886.435-.637.29-1.179.744-1.623 1.363-.445.619-.696 1.43-.755 2.436zm-19.63 8.758c-.387 0-.735-.116-1.044-.348a1.96 1.96 0 0 1 -.638-.87l-4.118-12.064a1.561 1.561 0 0 1 -.087-.493c0-.367.126-.677.377-.928s.56-.377.928-.377c.27 0 .512.068.725.203a.988.988 0 0 1 .464.58l3.393 11.165 3.364-10.904c.097-.31.27-.56.522-.754.27-.193.57-.29.899-.29s.628.097.899.29c.27.193.445.445.522.754l3.364 10.904 3.393-11.165a.988.988 0 0 1 .464-.58 1.42 1.42 0 0 1 .725-.203c.367 0 .677.126.928.377s.377.56.377.928c0 .155-.029.319-.087.493l-4.118 12.064a1.96 1.96 0 0 1 -.638.87c-.31.232-.657.348-1.044.348s-.735-.116-1.044-.348a2.153 2.153 0 0 1 -.667-.899l-3.074-9.599-3.074 9.599a2.153 2.153 0 0 1 -.667.899c-.31.232-.657.348-1.044.348z"/></g></svg>