<svg fill="none" height="144" width="248" xmlns="http://www.w3.org/2000/svg"><g fill="#fff" stroke="#fff"><path d="m31.59 101.676.01.029.01.028c.918 2.639 2.391 4.852 4.563 6.345 2.012 1.383 4.27 2.099 6.7 2.099 2.602 0 4.968-.861 7.001-2.501 2.053-1.58 3.523-3.596 4.29-6.025l20.143-63.807 20.143 63.807c.755 2.389 2.15 4.402 4.112 5.997l.035.028.035.027c2.103 1.608 4.497 2.474 7.109 2.474 2.43 0 4.688-.716 6.7-2.099 2.172-1.493 3.645-3.706 4.563-6.345l.01-.028.009-.029 28.005-86.014.022-.069.02-.07c.287-1.055.508-2.111.532-3.05.234-2.588-.563-4.957-2.491-6.76-1.846-1.825-4.19-2.695-6.794-2.695-2.207 0-4.225.71-5.921 2.124-1.619 1.35-2.737 3.092-3.372 5.125l-.003.01-.003.011-21.148 69.485-21.26-69.191c-.67-2.261-2.024-4.096-3.97-5.423-1.847-1.42-3.993-2.141-6.333-2.141-2.369 0-4.553.737-6.474 2.141-1.883 1.35-3.169 3.196-3.828 5.423l-21.26 69.191-21.128-69.418c-.534-2.07-1.617-3.847-3.257-5.213-1.731-1.443-3.81-2.124-6.064-2.124-2.556 0-4.837.9-6.652 2.694-1.898 1.778-2.751 4.102-2.633 6.678.012.96.237 2.048.534 3.134l.019.07.022.07 28.005 86.013z" stroke-width="6"/><path d="m214.64 11.5-.009-.028-.01-.028c-.918-2.64-2.392-4.851-4.563-6.344-2.013-1.384-4.27-2.1-6.701-2.1-2.602 0-4.967.861-7.001 2.501-2.053 1.58-3.523 3.597-4.289 6.025h-.001l-20.142 63.807-20.143-63.806c-.755-2.39-2.15-4.403-4.113-5.998l-.034-.028-.035-.027c-2.104-1.608-4.498-2.474-7.109-2.474-2.431 0-4.688.716-6.701 2.1-2.171 1.493-3.645 3.705-4.563 6.344l-.009.028-.01.029-28.004 86.014-.023.07-.019.07c-.288 1.054-.508 2.11-.532 3.049-.235 2.588.562 4.957 2.49 6.761 1.847 1.825 4.191 2.694 6.794 2.694 2.208 0 4.225-.71 5.922-2.124 1.619-1.349 2.736-3.092 3.371-5.125l.004-.01.003-.011 21.148-69.485 21.26 69.191c.67 2.261 2.023 4.096 3.969 5.423 1.848 1.421 3.994 2.141 6.334 2.141 2.368 0 4.552-.737 6.474-2.141 1.883-1.35 3.169-3.195 3.828-5.423l21.26-69.19 21.128 69.417c.533 2.071 1.616 3.847 3.256 5.213 1.731 1.443 3.809 2.124 6.064 2.124 2.556 0 4.836-.9 6.651-2.694 1.899-1.777 2.752-4.102 2.635-6.677-.013-.96-.238-2.048-.534-3.134l-.019-.07-.023-.07-28.004-86.013z" stroke-width="6"/><path d="m236.52 142.631.002.001c1.009.269 2.12.401 3.329.401 2.112 0 3.79-.472 4.942-1.504 1.142-1.025 1.734-2.277 1.734-3.732 0-1.115-.25-2.063-.802-2.794a4.942 4.942 0 0 0 -1.978-1.593 10.988 10.988 0 0 0 -2.438-.868c-.808-.191-1.585-.372-2.33-.543-.685-.182-1.227-.408-1.639-.669-.301-.202-.445-.469-.445-.861 0-.437.204-.829.737-1.184.526-.35 1.32-.556 2.443-.556.679 0 1.3.051 1.864.152l.003.001c.598.103 1.138.236 1.623.397l.192.064.077.026h.305a1.66 1.66 0 0 0 1.257-.538c.339-.342.523-.763.523-1.242 0-.355-.128-.684-.337-.978a1.59 1.59 0 0 0 -.938-.714 15.113 15.113 0 0 0 -2.235-.591 13.39 13.39 0 0 0 -2.558-.233c-2.138 0-3.838.495-5.01 1.572-1.151 1.057-1.73 2.397-1.73 3.984 0 1.038.243 1.938.767 2.661l.006.008.006.008a5.697 5.697 0 0 0 1.961 1.578l.008.004.008.004c.773.353 1.579.64 2.417.861l.012.003c.807.191 1.57.382 2.291.572l.008.003.009.001c.719.165 1.265.364 1.655.587l.009.005c.335.183.443.392.443.649 0 .568-.213.978-.65 1.286-.427.294-1.194.486-2.402.486-.905 0-1.68-.093-2.33-.27a13.393 13.393 0 0 1 -1.819-.647 1.91 1.91 0 0 0 -.779-.171c-.507 0-.942.201-1.271.585a1.747 1.747 0 0 0 -.477 1.195c0 .609.259 1.114.756 1.464l.022.016.024.014a12.34 12.34 0 0 0 2.735 1.1zm-10.287-15.393v-.033c0-.539-.203-1.008-.594-1.378a1.842 1.842 0 0 0 -1.378-.594c-.542 0-1.014.206-1.384.601a1.89 1.89 0 0 0 -.556 1.371v13.728c0 .533.188 1.003.563 1.378a1.89 1.89 0 0 0 1.377.562c.53 0 .998-.186 1.371-.556.396-.37.601-.842.601-1.384v-9.574a6.06 6.06 0 0 1 1.869-1.741l.008-.005a4.764 4.764 0 0 1 2.583-.724h.16c.535 0 1.013-.164 1.395-.517.388-.358.577-.826.577-1.359 0-.53-.185-.997-.555-1.371-.358-.383-.823-.569-1.353-.569h-.16c-1.209 0-2.286.339-3.21 1.027a11.35 11.35 0 0 0 -1.314 1.138zm-20.212 13.435.006.006c1.588 1.587 3.765 2.354 6.465 2.354 1.41 0 2.566-.129 3.447-.407l.007-.003c.86-.286 1.657-.64 2.391-1.062.285-.157.53-.358.724-.606.235-.295.363-.638.363-1.014 0-.496-.182-.931-.546-1.265a1.785 1.785 0 0 0 -1.234-.483 1.77 1.77 0 0 0 -.8.181c-.567.283-1.165.517-1.796.701-.607.155-1.37.238-2.3.238-1.648 0-2.831-.406-3.625-1.144-.702-.67-1.168-1.527-1.388-2.592h10.261c.556 0 1.049-.176 1.417-.569.37-.374.555-.841.555-1.371 0-1.5-.314-2.898-.946-4.185a7.605 7.605 0 0 0 -2.732-3.142c-1.228-.834-2.717-1.237-4.438-1.237-1.846 0-3.407.423-4.643 1.31a7.653 7.653 0 0 0 -2.667 3.383 11.032 11.032 0 0 0 -.838 4.287c0 2.779.752 5.009 2.317 6.62zm9.297-10.36.006.008c.36.48.605 1.103.714 1.888h-8.341c.107-.789.343-1.415.689-1.896.444-.618.975-1.06 1.593-1.341.648-.294 1.271-.435 1.873-.435s1.226.141 1.873.435c.618.281 1.149.723 1.593 1.341zm-19.148 12.047.011.007.011.005a5.243 5.243 0 0 0 1.689.528 9.395 9.395 0 0 0 1.447.133c.545 0 1.055-.057 1.527-.174a7.627 7.627 0 0 0 1.332-.445l.014-.006.014-.008c.303-.158.56-.367.739-.64a1.66 1.66 0 0 0 .266-.923c0-.47-.168-.886-.516-1.202a1.656 1.656 0 0 0 -1.136-.45c-.339 0-.666.065-.979.193-.151.053-.449.095-.941.095-.225 0-.495-.018-.814-.058a.95.95 0 0 1 -.532-.341c-.121-.142-.234-.445-.234-1.021v-9.164h3.116c.482 0 .912-.161 1.25-.498l.007-.008.008-.008c.317-.347.483-.765.483-1.234 0-.482-.161-.912-.498-1.25-.338-.337-.768-.498-1.25-.498h-3.116v-2.06c0-.304-.117-.573-.323-.786a1.017 1.017 0 0 0 -.785-.354c-.246 0-.47.084-.657.232-.09.067-.173.135-.238.2l-4.332 4.237a1.158 1.158 0 0 0 -.457.919c0 .28.07.581.299.81.228.228.529.298.809.298h1.772v9.42c0 1.032.178 1.91.582 2.591.377.637.852 1.132 1.432 1.46zm-11.719 0 .011.007.012.005a5.236 5.236 0 0 0 1.689.528c.546.087 1.03.133 1.446.133.546 0 1.055-.057 1.527-.174a7.599 7.599 0 0 0 1.332-.445l.015-.006.014-.008c.303-.158.559-.367.738-.64.182-.277.266-.59.266-.923 0-.47-.168-.886-.515-1.202a1.659 1.659 0 0 0 -1.137-.45 2.57 2.57 0 0 0 -.979.193c-.151.053-.449.095-.941.095-.225 0-.495-.018-.814-.058a.95.95 0 0 1 -.532-.341c-.12-.142-.234-.445-.234-1.021v-9.164h3.116c.482 0 .912-.161 1.25-.498l.008-.008.007-.008c.317-.347.483-.765.483-1.234 0-.482-.161-.912-.498-1.25-.338-.337-.768-.498-1.25-.498h-3.116v-2.06c0-.304-.117-.573-.323-.786a1.015 1.015 0 0 0 -.785-.354c-.246 0-.47.084-.657.232a2.426 2.426 0 0 0 -.238.2l-4.332 4.237c-.28.227-.457.539-.457.919 0 .28.071.581.299.81.228.228.53.298.809.298h1.772v9.42c0 1.032.179 1.91.582 2.591.378.637.852 1.132 1.432 1.46zm-18.218.047.005.002a6.483 6.483 0 0 0 2.806.624c1.566 0 2.892-.264 3.947-.827a11.367 11.367 0 0 0 1.585-1.008c.052.424.235.801.546 1.113.375.374.845.562 1.378.562.529 0 .997-.186 1.371-.556.395-.37.601-.842.601-1.384v-9.056a7.27 7.27 0 0 0 -.755-3.228c-.514-1.05-1.306-1.907-2.359-2.571-1.084-.683-2.454-1.005-4.074-1.005-1.163 0-2.229.12-3.192.367-.918.218-1.766.493-2.54.825-.345.146-.637.36-.841.658a1.767 1.767 0 0 0 -.295 1.018c0 .47.167.886.498 1.218a1.64 1.64 0 0 0 1.186.498c.165 0 .349-.032.537-.079l.016-.004.016-.005a21.432 21.432 0 0 1 1.845-.5l.011-.003c.634-.158 1.381-.241 2.247-.241 1.393 0 2.327.299 2.902.804h-.001l.007.005c.509.432.838 1.195.876 2.415h-3.368c-2.547 0-4.538.498-5.882 1.583-1.311 1.053-1.978 2.433-1.978 4.101 0 1.083.254 2.045.784 2.864l.004.007.005.007a5.431 5.431 0 0 0 2.112 1.796zm6.47-3.606a5.16 5.16 0 0 1 -2.571.672c-1.265 0-1.979-.254-2.324-.61a2.069 2.069 0 0 1 -.568-1.45c0-.379.087-.672.238-.902s.388-.432.745-.593c.785-.344 1.891-.533 3.349-.533h2.988v1.998c-.474.513-1.089.987-1.857 1.418zm-23.374-10.891c-.377-.616-.884-1.181-1.513-1.698-.918-.772-2.084-1.139-3.455-1.139-1.054 0-1.982.168-2.767.525-.746.339-1.382.752-1.899 1.245l-.008.008c-.092.093-.181.184-.268.276a1.84 1.84 0 0 0 -.593-1.3 1.838 1.838 0 0 0 -1.377-.594 1.84 1.84 0 0 0 -1.384.601 1.887 1.887 0 0 0 -.556 1.371v13.728c0 .533.188 1.003.562 1.378.375.374.845.562 1.378.562.529 0 .997-.186 1.371-.556.395-.37.601-.842.601-1.384v-9.458c.267-.425.578-.843.934-1.255a4.415 4.415 0 0 1 1.324-1.035l.006-.003.006-.004c.487-.27 1.093-.417 1.838-.417 1.133 0 1.778.316 2.116.807l.005.008.005.007c.398.536.638 1.411.638 2.71v8.64c0 .533.187 1.003.562 1.378.375.374.845.562 1.378.562.529 0 .997-.186 1.371-.556.395-.37.601-.842.601-1.384v-9.458c.267-.425.578-.843.934-1.255a4.415 4.415 0 0 1 1.324-1.035l.006-.003.006-.004c.487-.27 1.093-.417 1.838-.417 1.133 0 1.778.316 2.116.807l.005.008.005.007c.398.536.638 1.411.638 2.71v8.64c0 .533.187 1.003.562 1.378.375.374.845.562 1.378.562.529 0 .997-.186 1.371-.556.395-.37.601-.842.601-1.384v-9.216a8.338 8.338 0 0 0 -.578-3.028 5.88 5.88 0 0 0 -1.883-2.547c-.897-.726-2.04-1.069-3.383-1.069-1.225 0-2.287.2-3.163.626l-.005.003c-.81.405-1.482.887-2.001 1.453-.24.263-.457.514-.647.755zm-29.471-.672v-.033c0-.539-.203-1.008-.594-1.378a1.842 1.842 0 0 0 -1.378-.594c-.542 0-1.014.206-1.384.601a1.89 1.89 0 0 0 -.556 1.371v13.728c0 .533.188 1.003.563 1.378a1.89 1.89 0 0 0 1.377.562c.53 0 .998-.186 1.371-.556.396-.37.601-.842.601-1.384v-9.574a6.06 6.06 0 0 1 1.869-1.741l.008-.005a4.764 4.764 0 0 1 2.583-.724h.16c.535 0 1.013-.164 1.395-.517.388-.358.577-.826.577-1.359 0-.53-.185-.997-.555-1.371-.358-.383-.823-.569-1.353-.569h-.16c-1.209 0-2.286.339-3.21 1.027a11.35 11.35 0 0 0 -1.314 1.138zm-20.211 13.435.004.006c1.588 1.587 3.766 2.354 6.466 2.354 1.41 0 2.566-.129 3.447-.407l.007-.003c.86-.286 1.657-.64 2.391-1.062.285-.157.53-.358.724-.606.235-.295.363-.638.363-1.014 0-.496-.182-.931-.546-1.265a1.785 1.785 0 0 0 -1.234-.483 1.77 1.77 0 0 0 -.8.181c-.567.283-1.165.517-1.796.701-.607.155-1.37.238-2.3.238-1.648 0-2.831-.406-3.625-1.144-.702-.67-1.168-1.527-1.388-2.592h10.261c.556 0 1.049-.176 1.417-.569.37-.374.555-.841.555-1.371 0-1.5-.314-2.898-.946-4.185a7.605 7.605 0 0 0 -2.732-3.142c-1.228-.834-2.717-1.237-4.438-1.237-1.846 0-3.407.423-4.643 1.31a7.652 7.652 0 0 0 -2.667 3.383 11.041 11.041 0 0 0 -.838 4.287c0 2.779.752 5.009 2.318 6.62zm9.296-10.36.006.008c.36.48.605 1.103.714 1.888h-8.341c.107-.789.343-1.415.689-1.896.444-.618.975-1.06 1.593-1.341.648-.294 1.271-.435 1.873-.435s1.226.141 1.873.435c.618.281 1.149.723 1.593 1.341zm-29.059-11.558c-.38.38-.563.864-.563 1.41v20.768c0 .533.188 1.003.563 1.378.374.374.844.562 1.377.562.53 0 .998-.186 1.371-.556a1.84 1.84 0 0 0 .601-1.384v-9.424a10.769 10.769 0 0 1 2.034-1.915c.76-.551 1.657-.833 2.714-.833 1.172 0 1.886.326 2.29.858l.005.007.005.006c.459.565.72 1.388.72 2.533v8.768c0 .533.188 1.003.563 1.378.374.374.844.562 1.377.562.53 0 .998-.186 1.371-.556a1.84 1.84 0 0 0 .601-1.384v-9.088c0-1.218-.237-2.337-.72-3.349-.485-1.039-1.195-1.869-2.128-2.476-.95-.639-2.084-.947-3.38-.947-1.5 0-2.786.325-3.826 1.01-.587.382-1.129.795-1.626 1.239v-7.157c0-.555-.2-1.04-.6-1.416a1.892 1.892 0 0 0 -1.372-.556c-.533 0-1.003.188-1.377.562zm.35.35-.002-.001.001.001zm-9.658 23.255.011.007.012.005a5.238 5.238 0 0 0 1.689.528 9.38 9.38 0 0 0 1.446.133c.546 0 1.056-.057 1.527-.174a7.624 7.624 0 0 0 1.332-.445l.015-.006.014-.008c.303-.158.559-.367.738-.64.182-.277.266-.59.266-.923 0-.47-.168-.886-.515-1.202a1.658 1.658 0 0 0 -1.137-.45 2.57 2.57 0 0 0 -.98.193c-.15.053-.448.095-.94.095-.225 0-.495-.018-.814-.058a.948.948 0 0 1 -.532-.341c-.12-.142-.234-.445-.234-1.021v-9.164h3.116c.482 0 .912-.161 1.25-.498l.008-.008.007-.008c.317-.347.483-.765.483-1.234 0-.482-.16-.912-.498-1.25-.338-.337-.768-.498-1.25-.498h-3.116v-2.06c0-.304-.117-.573-.323-.786a1.016 1.016 0 0 0 -.785-.354c-.246 0-.47.084-.657.232-.09.067-.172.135-.238.2l-4.332 4.237c-.28.227-.457.539-.457.919 0 .28.07.581.299.81.228.228.53.298.81.298h1.771v9.42c0 1.032.179 1.91.582 2.591.378.637.852 1.132 1.432 1.46zm-18.218.047.005.002c.879.416 1.816.624 2.806.624 1.566 0 2.892-.264 3.947-.827a11.347 11.347 0 0 0 1.585-1.008c.053.424.235.801.546 1.113.375.374.845.562 1.378.562.53 0 .997-.186 1.37-.556a1.84 1.84 0 0 0 .602-1.384v-9.056a7.269 7.269 0 0 0 -.755-3.228c-.514-1.05-1.306-1.907-2.359-2.571-1.084-.683-2.454-1.005-4.074-1.005-1.163 0-2.229.12-3.192.367a15.58 15.58 0 0 0 -2.54.825c-.345.146-.638.36-.841.658a1.768 1.768 0 0 0 -.295 1.018c0 .47.167.886.498 1.218.325.324.728.498 1.186.498.165 0 .349-.032.537-.079l.016-.004.016-.005a21.444 21.444 0 0 1 1.845-.5l.01-.003c.635-.158 1.382-.241 2.248-.241 1.392 0 2.327.299 2.901.804l.007.005c.51.432.838 1.195.876 2.415h-3.368c-2.547 0-4.538.498-5.882 1.583-1.31 1.053-1.978 2.433-1.978 4.101 0 1.083.254 2.045.784 2.864l.005.007.004.007a5.425 5.425 0 0 0 2.112 1.796zm6.47-3.606c-.8.449-1.654.672-2.571.672-1.265 0-1.98-.254-2.324-.61a2.07 2.07 0 0 1 -.568-1.45c0-.379.087-.672.238-.902.15-.23.388-.432.745-.593.785-.344 1.89-.533 3.349-.533h2.988v1.998c-.474.513-1.09.987-1.857 1.418zm-24.619 1.872.005.006c1.588 1.587 3.765 2.354 6.466 2.354 1.41 0 2.566-.129 3.446-.407l.008-.003c.86-.286 1.656-.64 2.39-1.062.286-.157.53-.358.724-.606.235-.295.364-.638.364-1.014 0-.496-.182-.931-.547-1.265a1.786 1.786 0 0 0 -1.233-.483c-.282 0-.552.057-.8.181-.567.283-1.166.517-1.796.701-.607.155-1.37.238-2.3.238-1.649 0-2.831-.406-3.626-1.144-.701-.67-1.168-1.527-1.388-2.592h10.262c.555 0 1.049-.176 1.416-.569.37-.374.556-.841.556-1.371 0-1.5-.314-2.898-.946-4.185a7.612 7.612 0 0 0 -2.732-3.142c-1.229-.834-2.717-1.237-4.438-1.237-1.847 0-3.407.423-4.644 1.31a7.653 7.653 0 0 0 -2.666 3.383 11.041 11.041 0 0 0 -.838 4.287c0 2.779.752 5.009 2.317 6.62zm9.297-10.36.006.008c.36.48.605 1.103.713 1.888h-8.34c.106-.789.343-1.415.689-1.896.444-.618.975-1.06 1.593-1.341.647-.294 1.27-.435 1.873-.435.602 0 1.225.141 1.873.435.617.281 1.148.723 1.593 1.341zm-31.351 12.064.008.006.008.006c.428.321.917.484 1.452.484.534 0 1.024-.163 1.452-.484l.007-.006.008-.006a2.87 2.87 0 0 0 .887-1.199l.005-.014.005-.014 2.916-9.106 2.915 9.106.005.014.006.014c.183.471.482.871.886 1.199l.008.006.008.006c.427.321.917.484 1.452.484.534 0 1.024-.163 1.452-.484l.007-.006.008-.006c.402-.327.697-.72.86-1.182l.002-.004 4.544-13.312v-.004a2.22 2.22 0 0 0 .123-.702c0-.533-.188-1.003-.563-1.378a1.893 1.893 0 0 0 -1.377-.562c-.372 0-.725.101-1.052.292a1.59 1.59 0 0 0 -.738.925v.002l-3.27 10.757-3.227-10.459a1.92 1.92 0 0 0 -.767-1.104 2.169 2.169 0 0 0 -1.282-.413c-.469 0-.9.14-1.283.413l-.007.005-.007.006a2.14 2.14 0 0 0 -.749 1.079v.002l-3.23 10.471-3.27-10.757v-.002a1.589 1.589 0 0 0 -.73-.92 1.956 1.956 0 0 0 -1.06-.297c-.533 0-1.003.188-1.378.562a1.893 1.893 0 0 0 -.562 1.378c0 .233.043.468.121.702l.001.004 4.544 13.312.002.004c.163.462.458.855.86 1.182z"/></g></svg>